<svg width="35" height="36" viewBox="0 0 35 36" fill="none" xmlns="http://www.w3.org/2000/svg">
<path d="M19.8112 0.00641861C19.4584 0.00628787 19.109 0.163663 18.8397 0.443924C18.5704 0.724184 18.4034 1.10437 18.3753 1.50085C18.3473 1.89733 18.4605 2.27762 18.6901 2.55807C18.9197 2.83851 19.2469 2.99614 19.5996 2.99627L29.6897 3.00001L0.552647 33.325C0.290407 33.6069 0.129617 33.9844 0.104908 34.3764C0.0801998 34.7684 0.193549 35.1434 0.420544 35.4206C0.647539 35.6979 0.970018 35.8552 1.31852 35.8588C1.66703 35.8623 2.01368 35.7118 2.28381 35.4395L31.4209 5.11453L30.6183 16.455C30.5903 16.8515 30.7035 17.2318 30.9331 17.5122C31.1627 17.7927 31.4899 17.9503 31.8426 17.9504C32.1954 17.9506 32.5449 17.7932 32.8141 17.5129C33.0834 17.2327 33.2505 16.8525 33.2785 16.456L34.3365 1.50677C34.3502 1.31243 34.3294 1.11807 34.2731 0.935666C34.2215 0.757944 34.138 0.596316 34.0275 0.460176L34.023 0.448215L34.0077 0.439239C33.8971 0.306112 33.7627 0.200453 33.612 0.12814C33.4568 0.0511224 33.2868 0.0113957 33.1122 0.0113479L19.8112 0.00641861Z" fill="#0E2F26"/>
</svg>
